<?xml version="1.0" encoding="UTF-8"?>
<svg version="1.1" xmlns="http://www.w3.org/2000/svg" width="512" height="512">
<path d="M0 0 C0.68216583 0.3399147 1.36433167 0.67982941 2.06716919 1.03004456 C4.30182021 2.14656804 6.5290316 3.27712809 8.75634766 4.40820312 C10.31295478 5.18990366 11.86997845 5.97077522 13.42739868 6.75085449 C16.67991568 8.38243797 19.92912518 10.02035972 23.17578125 11.66357422 C27.34483084 13.77363339 31.5190349 15.87322533 35.695364 17.96883392 C39.67559992 19.96632964 43.65372548 21.96800869 47.63134766 23.97070312 C48.3931773 24.35407333 49.15500694 24.73744354 49.93992233 25.13243103 C52.08349757 26.21232436 54.2256008 27.29507579 56.3671875 28.37890625 C57.32712616 28.86207054 57.32712616 28.86207054 58.30645752 29.35499573 C62.68027681 31.57431978 62.68027681 31.57431978 63.79541016 32.68945312 C63.95535718 35.28074713 64.05487353 37.84918688 64.11181641 40.44335938 C64.13046753 41.1303894 64.14911865 41.81741943 64.16833496 42.52526855 C64.23682204 45.10069471 64.29684963 47.67634019 64.35791016 50.25195312 C64.50228516 56.00632813 64.64666016 61.76070313 64.79541016 67.68945312 C73.04541016 59.43945312 81.29541016 51.18945312 89.79541016 42.68945312 C109.88447373 49.17489884 129.9544019 55.70714706 149.98291016 62.37695312 C150.91335144 62.6862677 151.84379272 62.99558228 152.8024292 63.31427002 C155.43999188 64.19151062 158.07681923 65.07092196 160.71337891 65.95117188 C161.50440506 66.21418594 162.29543121 66.47720001 163.11042786 66.7481842 C168.56474087 68.57411848 168.56474087 68.57411848 170.79541016 69.68945312 C171.76358912 72.08540612 172.61621238 74.44938072 173.42504883 76.8996582 C173.68054001 77.65415756 173.93603119 78.40865692 174.19926453 79.1860199 C175.04507282 81.69113608 175.87964984 84.19982439 176.71337891 86.70898438 C177.29548844 88.44687054 177.87795665 90.18463661 178.46076965 91.92228699 C179.68213852 95.56997007 180.8977301 99.21951829 182.10961914 102.87036133 C183.66444018 107.55209684 185.23550423 112.22819342 186.81122875 116.90292835 C188.01873334 120.49238276 189.21649167 124.0850318 190.41143227 127.67868614 C190.98671269 129.40416692 191.56528463 131.12855385 192.14717674 132.85181618 C192.95952295 135.26168247 193.75839892 137.67561219 194.55395508 140.09106445 C194.79752747 140.80446991 195.04109985 141.51787537 195.29205322 142.25289917 C197.30005288 148.43461937 197.30005288 148.43461937 195.79541016 151.68945312 C194.13383406 153.60538001 192.48125586 155.35324534 190.66650391 157.11132812 C189.73507568 158.03526367 188.80364746 158.95919922 187.84399414 159.91113281 C186.65233643 161.07547852 185.46067871 162.23982422 184.23291016 163.43945312 C180.45853516 167.15195313 176.68416016 170.86445313 172.79541016 174.68945312 C189.62541016 175.18445313 189.62541016 175.18445313 206.79541016 175.68945312 C208.73416016 179.58757812 210.67291016 183.48570312 212.67041016 187.50195312 C216.59855448 195.37389175 220.55190139 203.22753129 224.67041016 211.00195312 C225.04963623 211.72189453 225.4288623 212.44183594 225.81958008 213.18359375 C227.76497113 216.87200164 229.72067297 220.55440526 231.70019531 224.22460938 C233.45908034 227.48683119 235.20100818 230.75771417 236.93487549 234.03329468 C237.62828142 235.33580832 238.32754612 236.63522146 239.03289795 237.93130493 C240.02495956 239.75577147 240.99600359 241.59008766 241.96337891 243.42773438 C242.53338623 244.49032471 243.10339355 245.55291504 243.69067383 246.64770508 C245.47106655 251.54978528 244.32744766 254.49504028 242.25170898 259.1550293 C241.59375498 260.43521477 240.92679707 261.71079978 240.25244141 262.98242188 C239.89201752 263.67814804 239.53159363 264.37387421 239.1602478 265.09068298 C237.98390617 267.35691533 236.79605768 269.61689152 235.60791016 271.87695312 C234.79049557 273.44605395 233.9738519 275.01555662 233.15795898 276.58544922 C231.50511611 279.76308535 229.84789549 282.938376 228.18701172 286.11181641 C225.99843433 290.29600339 223.82671884 294.48866858 221.66259766 298.68554688 C214.86722606 311.85245041 214.86722606 311.85245041 213.16088867 314.98364258 C211.73746257 317.62999707 211.73746257 317.62999707 210.92797852 320.38549805 C209.87666676 323.26293634 209.17325033 324.73038296 206.79541016 326.68945312 C200.85374264 327.96862524 195.03457448 327.85851957 188.98291016 327.75195312 C187.31948613 327.75502904 185.65606433 327.76214642 183.99267578 327.7734375 C179.92545808 327.79224769 175.86209631 327.75567341 171.79541016 327.68945312 C172.56320801 328.399646 173.33100586 329.10983887 174.12207031 329.84155273 C176.97130212 332.49124606 179.78360113 335.17755507 182.58642578 337.8762207 C183.80295048 339.03752243 185.0291776 340.18874976 186.26513672 341.3293457 C188.04411272 342.97439718 189.78464427 344.65295156 191.52197266 346.34179688 C192.07913971 346.84218979 192.63630676 347.3425827 193.21035767 347.85813904 C194.72753906 349.37280273 194.72753906 349.37280273 196.79541016 352.68945312 C196.30273438 356.60180664 196.30273438 356.60180664 195.59677124 358.93800354 C194.63491935 362.24049356 194.1001984 365.53014083 193.53955078 368.92382812 C191.8907513 378.2867686 189.75608462 387.50756333 187.29541016 396.68945312 C186.96524902 397.92155455 186.96524902 397.92155455 186.62841797 399.17854691 C182.33910684 414.7201258 177.19543286 431.00651763 162.53369141 439.49755859 C153.1164731 444.50638402 143.04161523 447.78315914 132.79541016 450.62695312 C131.52312057 450.98077057 131.52312057 450.98077057 130.22512817 451.34173584 C119.19765419 454.35557132 108.08239755 456.86078521 96.79541016 458.68945312 C96.09462593 458.81263192 95.39384171 458.93581072 94.67182159 459.06272221 C89.15418598 459.93041062 89.15418598 459.93041062 85.68408203 457.59985352 C84.68780169 456.60134492 83.71465297 455.57929811 82.76416016 454.53710938 C82.0685498 453.82790344 82.0685498 453.82790344 81.35888672 453.10437012 C79.6458045 451.34446777 77.97285189 449.54585842 76.29541016 447.75195312 C72.50041016 443.77132813 68.70541016 439.79070312 64.79541016 435.68945312 C64.46541016 447.23945313 64.13541016 458.78945313 63.79541016 470.68945312 C50.08309525 477.9525656 36.32388483 485.118427 22.47731781 492.1226635 C19.42993737 493.66452937 16.3866235 495.21351585 13.35107422 496.77856445 C9.78526037 498.61671728 6.20520623 500.42535877 2.62353516 502.23242188 C0.99535858 503.07899605 0.99535858 503.07899605 -0.66571045 503.94267273 C-1.6849762 504.45103165 -2.70424194 504.95939056 -3.75439453 505.4831543 C-4.64084656 505.93486496 -5.52729858 506.38657562 -6.44061279 506.85197449 C-12.64021918 508.73044085 -17.91991113 506.19526028 -23.40917969 503.37890625 C-24.09134552 503.03899155 -24.77351135 502.69907684 -25.47634888 502.34886169 C-27.7109999 501.23233821 -29.93821129 500.10177816 -32.16552734 498.97070312 C-33.72213447 498.18900259 -35.27915813 497.40813103 -36.83657837 496.62805176 C-40.08909537 494.99646828 -43.33830487 493.35854653 -46.58496094 491.71533203 C-50.75401052 489.60527286 -54.92821459 487.50568092 -59.10454369 485.41007233 C-63.08477961 483.41257661 -67.06290516 481.41089756 -71.04052734 479.40820312 C-72.18327181 478.83314781 -72.18327181 478.83314781 -73.34910202 478.24647522 C-75.49267726 477.16658189 -77.63478048 476.08383046 -79.77636719 475 C-80.73630585 474.51683571 -80.73630585 474.51683571 -81.71563721 474.02391052 C-86.0894565 471.80458647 -86.0894565 471.80458647 -87.20458984 470.68945312 C-87.3645515 468.09792205 -87.46397681 465.52993292 -87.52099609 462.93554688 C-87.55216774 461.77237694 -87.55216774 461.77237694 -87.58396912 460.58570862 C-87.64954786 458.09955005 -87.70838784 455.61328267 -87.76708984 453.12695312 C-87.81026718 451.44530108 -87.8538812 449.76366019 -87.89794922 448.08203125 C-88.00523763 443.95128442 -88.10648117 439.82042777 -88.20458984 435.68945312 C-88.89496338 436.42172119 -89.58533691 437.15398926 -90.29663086 437.90844727 C-92.86844341 440.6252861 -95.46683383 443.31537227 -98.07397461 445.99829102 C-99.19758913 447.16208671 -100.31391318 448.33296804 -101.42260742 449.51098633 C-103.01997282 451.20563865 -104.6420336 452.87287688 -106.27099609 454.53710938 C-107.00425865 455.33230736 -107.00425865 455.33230736 -107.75233459 456.14356995 C-109.20678711 457.59985352 -109.20678711 457.59985352 -112.20458984 459.68945312 C-117.22330966 459.33711324 -121.82147702 458.00813418 -126.56103516 456.40454102 C-127.60872574 456.05801231 -127.60872574 456.05801231 -128.67758179 455.70448303 C-130.96464046 454.94626841 -133.24870604 454.1794576 -135.53271484 453.41210938 C-137.12964966 452.87984947 -138.72671808 452.34799024 -140.32391357 451.81651306 C-143.6604241 450.70480307 -146.99550743 449.58894102 -150.32958984 448.4699707 C-154.60332346 447.03590652 -158.88012256 445.61125257 -163.15797806 444.189538 C-166.45160238 443.09398024 -169.74373921 441.99400947 -173.03542328 440.89263725 C-174.61227798 440.36551413 -176.18955209 439.83964392 -177.76725006 439.31505013 C-179.96824506 438.58235456 -182.16721193 437.84387072 -184.36572266 437.10375977 C-185.61701965 436.68485977 -186.86831665 436.26595978 -188.15753174 435.83436584 C-191.20458984 434.68945312 -191.20458984 434.68945312 -194.20458984 432.68945312 C-195.25225289 430.24609992 -196.13557867 427.88310931 -196.96362305 425.36572266 C-197.22086655 424.61107727 -197.47811005 423.85643188 -197.7431488 423.07891846 C-198.59142982 420.58022483 -199.42400958 418.07663523 -200.25537109 415.57226562 C-200.83831508 413.83576411 -201.42175167 412.09942788 -202.00566101 410.36325073 C-203.22729963 406.72220822 -204.44082818 403.07858131 -205.64916992 399.43310547 C-207.20002858 394.75744002 -208.77390732 390.08990053 -210.354352 385.42416573 C-211.56498034 381.84004403 -212.76170783 378.2513981 -213.95442772 374.66128159 C-214.529109 372.93811241 -215.10850582 371.21650857 -215.69265175 369.49652481 C-216.5070315 367.09285085 -217.30211862 364.68361659 -218.0925293 362.27197266 C-218.33812592 361.56013824 -218.58372253 360.84830383 -218.83676147 360.11489868 C-220.38942764 355.28187023 -220.38942764 355.28187023 -219.48274231 352.37588501 C-217.52504162 349.79283725 -215.28838993 347.52933776 -212.97802734 345.26757812 C-211.58463135 343.8816748 -211.58463135 343.8816748 -210.16308594 342.46777344 C-208.98053223 341.30342773 -207.79797852 340.13908203 -206.57958984 338.93945312 C-202.82583984 335.22695313 -199.07208984 331.51445312 -195.20458984 327.68945312 C-206.75458984 327.35945313 -218.30458984 327.02945312 -230.20458984 326.68945312 C-237.62257865 312.68468141 -244.9202129 298.62382453 -252.06738281 284.47875977 C-253.25379276 282.13799168 -254.44663156 279.8004722 -255.64550781 277.46606445 C-257.40193492 274.04419097 -259.13733824 270.61236804 -260.86865234 267.17773438 C-261.40600006 266.14119217 -261.94334778 265.10464996 -262.49697876 264.03669739 C-265.37644538 258.26229272 -267.12505505 254.15360986 -266.20458984 247.68945312 C-264.96435547 244.42773438 -264.96435547 244.42773438 -263.11083984 241.00195312 C-262.37106488 239.59909396 -261.63292303 238.19537296 -260.89599609 236.79101562 C-260.47398926 235.99727539 -260.05198242 235.20353516 -259.6171875 234.38574219 C-257.07825129 229.53955976 -254.65957518 224.63283908 -252.22311401 219.73455811 C-250.66919692 216.61318619 -249.10839734 213.49525926 -247.54833984 210.37695312 C-246.91158844 209.10353195 -246.27486989 207.83009435 -245.63818359 206.55664062 C-240.49365234 196.26757813 -235.34912109 185.97851562 -230.20458984 175.68945312 C-218.98458984 175.35945312 -207.76458984 175.02945313 -196.20458984 174.68945312 C-204.12458984 166.76945313 -212.04458984 158.84945312 -220.20458984 150.68945312 C-216.82357243 138.29238928 -216.82357243 138.29238928 -214.83203125 132.15429688 C-214.61529251 131.48451309 -214.39855377 130.81472931 -214.17524719 130.12464905 C-211.94818272 123.25722165 -209.68871979 116.40026907 -207.42626953 109.54443359 C-206.35560033 106.29656509 -205.2953034 103.04557915 -204.24365234 99.79150391 C-202.9658035 95.83775439 -201.67047853 91.89014926 -200.36234665 87.94631958 C-199.86901884 86.44923272 -199.38184906 84.95010171 -198.90105057 83.44894409 C-198.22944681 81.35647416 -197.53560353 79.27267877 -196.8359375 77.18945312 C-196.44749664 76.00351563 -196.05905579 74.81757812 -195.65884399 73.59570312 C-192.89041915 68.0631525 -187.41299167 66.87714172 -181.86328125 64.95874023 C-181.14227737 64.70482513 -180.4212735 64.45091003 -179.67842102 64.18930054 C-177.30693166 63.35743268 -174.93220279 62.53554192 -172.55615234 61.71679688 C-171.74203259 61.43624514 -170.92791283 61.1556934 -170.08912277 60.86664009 C-165.78510991 59.38669196 -161.47784736 57.91660099 -157.16845703 56.45239258 C-153.60546764 55.23941837 -150.05075847 54.00564529 -146.50146484 52.75317383 C-142.20777309 51.23815787 -137.90299805 49.76017408 -133.58768845 48.30792427 C-131.94786045 47.74928349 -130.31235074 47.17779495 -128.68156815 46.59327507 C-115.96499054 42.0521766 -115.96499054 42.0521766 -111.77384949 43.56939697 C-109.89969173 45.13650776 -108.60666303 46.69648788 -107.20458984 48.68945312 C-106.36677979 49.4897998 -105.52896973 50.29014648 -104.66577148 51.11474609 C-103.90643311 51.87932129 -103.14709473 52.64389648 -102.36474609 53.43164062 C-101.6107251 54.18815918 -100.8567041 54.94467773 -100.07983398 55.72412109 C-99.15162842 56.66143066 -98.22342285 57.59874023 -97.26708984 58.56445312 C-94.27646484 61.57570313 -91.28583984 64.58695312 -88.20458984 67.68945312 C-87.87458984 56.13945313 -87.54458984 44.58945312 -87.20458984 32.68945312 C-73.49227494 25.42634065 -59.73306451 18.26047925 -45.8864975 11.25624275 C-42.83911706 9.71437688 -39.79580319 8.1653904 -36.76025391 6.6003418 C-33.19444005 4.76218897 -29.61438592 2.95354748 -26.03271484 1.14648438 C-24.94726379 0.58210159 -23.86181274 0.01771881 -22.74346924 -0.56376648 C-21.72420349 -1.0721254 -20.70493774 -1.58048431 -19.65478516 -2.10424805 C-18.76833313 -2.55595871 -17.8818811 -3.00766937 -16.96856689 -3.47306824 C-10.76896051 -5.3515346 -5.48926856 -2.81635403 0 0 Z M-31.20458984 214.68945312 C-30.52396484 214.54507813 -29.84333984 214.40070313 -29.14208984 214.25195312 C-19.69689754 212.44329928 -19.69689754 212.44329928 -17.20458984 213.68945312 C-17.07958984 216.06445312 -17.07958984 216.06445312 -17.20458984 218.68945312 C-17.86458984 219.34945312 -18.52458984 220.00945312 -19.20458984 220.68945312 C-18.21458984 223.65945312 -17.22458984 226.62945312 -16.20458984 229.68945312 C-17.00896484 229.38007813 -17.81333984 229.07070312 -18.64208984 228.75195312 C-23.50563576 228.66662776 -25.50614205 230.58025658 -29.14599609 233.63085938 C-31.94405229 236.42891557 -33.52853288 239.11872307 -35.20458984 242.68945312 C-36.19458984 242.02945313 -37.18458984 241.36945313 -38.20458984 240.68945312 C-40.35733932 240.99785911 -40.35733932 240.99785911 -42.20458984 241.68945312 C-42.53458984 243.33945313 -42.86458984 244.98945313 -43.20458984 246.68945312 C-40.72958984 246.19445312 -40.72958984 246.19445312 -38.20458984 245.68945312 C-38.06021484 246.45257813 -37.91583984 247.21570313 -37.76708984 248.00195312 C-37.24133044 250.77118221 -37.24133044 250.77118221 -36.20458984 253.68945312 C-35.35896484 253.48320312 -34.51333984 253.27695312 -33.64208984 253.06445312 C-27.27360043 252.36970883 -23.38612914 254.36470372 -18.51708984 258.25195312 C-17.79134766 258.87199219 -17.06560547 259.49203125 -16.31787109 260.13085938 C-14.2107964 261.68487565 -12.76054087 262.26826932 -10.20458984 262.68945312 C-11.60165227 269.93211885 -13.34416692 275.54379872 -17.70458984 281.51757812 C-20.06994319 284.94241266 -21.98231679 288.70231414 -23.20458984 292.68945312 C-22.42451946 294.81566646 -22.42451946 294.81566646 -20.58740234 295.29882812 C-8.29616488 297.31378509 2.63425292 295.82895189 12.85791016 288.68945312 C16.78324506 285.90067866 16.78324506 285.90067866 18.79541016 281.68945312 C18.34166016 280.90570313 17.88791016 280.12195313 17.42041016 279.31445312 C15.3734936 274.74825465 15.34185005 270.76976426 15.20166016 265.81054688 C14.74425766 262.29646423 14.04889231 260.42124549 11.79541016 257.68945312 C9.38282547 256.81056024 9.38282547 256.81056024 6.73291016 256.62695312 C4.07275391 256.34179688 4.07275391 256.34179688 1.79541016 255.68945312 C-0.57402208 252.4200585 -0.35360578 249.64460897 0.23681641 245.70117188 C0.79541016 243.68945312 0.79541016 243.68945312 2.85791016 240.62695312 C5.21054412 237.06005647 5.13049882 234.87806146 4.79541016 230.68945312 C5.78541016 230.35945313 6.77541016 230.02945313 7.79541016 229.68945312 C7.30041016 228.20445312 7.30041016 228.20445312 6.79541016 226.68945312 C6.13541016 226.68945312 5.47541016 226.68945312 4.79541016 226.68945312 C5.45541016 225.36945313 6.11541016 224.04945313 6.79541016 222.68945312 C8.77541016 223.01945313 10.75541016 223.34945312 12.79541016 223.68945312 C13.12541016 221.04945313 13.45541016 218.40945312 13.79541016 215.68945312 C9.51225465 212.6995319 9.51225465 212.6995319 4.60791016 211.75195312 C2.47114146 212.85717831 0.70663867 214.22792543 -1.20458984 215.68945312 C-4.49070112 217.46943007 -7.52204868 218.98127213 -11.20458984 219.68945312 C-11.32833984 218.57570312 -11.45208984 217.46195313 -11.57958984 216.31445312 C-11.85117115 212.65841636 -11.85117115 212.65841636 -14.20458984 210.68945312 C-13.21458984 210.02945313 -12.22458984 209.36945313 -11.20458984 208.68945312 C-18.06045835 208.08004259 -26.21085129 209.69571458 -31.20458984 214.68945312 Z M-56.20458984 232.68945312 C-55.20458984 235.68945312 -55.20458984 235.68945312 -55.20458984 235.68945312 Z M16.79541016 235.68945312 C16.79541016 236.34945312 16.79541016 237.00945312 16.79541016 237.68945312 C20.1986195 238.3661876 20.1986195 238.3661876 23.79541016 238.68945312 C24.45541016 238.02945313 25.11541016 237.36945313 25.79541016 236.68945312 C22.82541016 236.35945312 19.85541016 236.02945313 16.79541016 235.68945312 Z M-51.20458984 244.68945312 C-53.4051362 255.91223955 -51.05147592 267.20136537 -44.85693359 276.77148438 C-40.34775679 283.06028295 -35.64941397 289.06785694 -28.20458984 291.68945312 C-28.72960917 278.97893546 -28.72960917 278.97893546 -34.93505859 268.32226562 C-36.20458984 266.68945312 -36.20458984 266.68945312 -36.64208984 262.93945312 C-36.30525032 260.43721669 -35.97305899 258.09091921 -35.20458984 255.68945312 C-41.69651652 250.78744381 -41.69651652 250.78744381 -49.20458984 248.68945312 C-49.53458984 247.36945313 -49.86458984 246.04945313 -50.20458984 244.68945312 C-50.53458984 244.68945312 -50.86458984 244.68945312 -51.20458984 244.68945312 Z " fill="#000000" transform="translate(266.20458984375,4.310546875)"/>
<path d="M0 0 C1.44413088 0.25656259 2.88964369 0.50542303 4.33618164 0.74804688 C35.04318687 6.66753443 35.04318687 6.66753443 42.75622559 16.1618042 C49.55679431 27.10311559 52.18274382 40.37091678 54.55929565 52.87887573 C55.20290026 55.97656551 56.08334237 58.97283349 57 62 C47.46549277 75.84160124 35.25468729 93.49580139 18.21032715 98.00189209 C8.35680359 99.79441077 -1.72039958 99.6032289 -11.6875 99.1875 C-12.41088184 99.15753937 -13.13426369 99.12757874 -13.87956619 99.09671021 C-22.94712576 98.69355496 -31.97620758 97.98565722 -41 97 C-47.14906145 37.84778409 -47.14906145 37.84778409 -33.67578125 21.14453125 C-30.76982999 17.85702371 -27.70671921 14.8615611 -24.4375 11.9375 C-23.65417297 11.23345032 -22.87084595 10.52940063 -22.06378174 9.80401611 C-8.31081859 -2.15767109 -8.31081859 -2.15767109 0 0 Z " fill="#FEFEFE" transform="translate(371,84)"/>
<path d="M0 0 C9.75418402 -1.06543695 19.51071647 -1.78153511 29.3125 -2.1875 C30.03080616 -2.21746063 30.74911232 -2.24742126 31.48918533 -2.27828979 C49.18183651 -2.93069774 63.76537846 -2.41330437 77.52903748 10.11665344 C85.17950606 17.71239619 91.89162257 26.13223972 98 35 C96.36686197 40.06879647 94.73100753 45.1367057 93.09277344 50.20385742 C92.53736247 51.9230249 91.9826579 53.64242078 91.42871094 55.36206055 C90.62626813 57.85267499 89.82117563 60.34242048 89.015625 62.83203125 C88.65286469 63.96086479 88.65286469 63.96086479 88.28277588 65.11250305 C87.79653598 66.61194682 87.29679981 68.10707848 86.78393555 69.59762573 C86.21744067 71.333652 85.7237293 73.09399889 85.27661133 74.86453247 C83.22200472 82.0907559 83.22200472 82.0907559 79.93487549 84.53657532 C77.29200814 85.72550444 74.69045784 86.58717745 71.90625 87.390625 C70.43073669 87.87024689 70.43073669 87.87024689 68.92541504 88.35955811 C65.79503815 89.36454901 62.64930068 90.3062215 59.5 91.25 C57.38289877 91.92720035 55.26699397 92.6081532 53.15234375 93.29296875 C51.13387905 93.93306055 49.11437774 94.56989457 47.09375 95.203125 C46.14262329 95.50188538 45.19149658 95.80064575 44.21154785 96.10845947 C43.3238269 96.37334167 42.43610596 96.63822388 41.52148438 96.91113281 C40.35377502 97.26440643 40.35377502 97.26440643 39.16247559 97.62481689 C34.38393337 98.45387981 31.29335507 96.10118356 27.51594543 93.48962402 C15.40818829 84.62506113 1.37925804 73.85247083 -1.27158165 58.22255802 C-3.80925626 39.1094836 -1.9200883 19.08860404 0 0 Z " fill="#FEFEFE" transform="translate(330,331)"/>
<path d="M0 0 C0.72338184 0.02996063 1.44676369 0.05992126 2.19206619 0.09078979 C11.25962576 0.49394504 20.28870758 1.20184278 29.3125 2.1875 C35.4537751 61.26481347 35.4537751 61.26481347 22.05859375 78.078125 C19.17218033 81.37432942 16.12497155 84.3767261 12.875 87.3125 C12.10021301 88.0208197 11.32542603 88.7291394 10.52716064 89.45892334 C8.27871645 91.44743996 5.98907282 93.34124644 3.62890625 95.1953125 C2.93147812 95.74616516 2.23404999 96.29701782 1.51548767 96.86456299 C-1.30268945 98.84057448 -3.38214605 100.23981093 -6.89402771 100.09907532 C-9.21108452 99.58581246 -11.4259186 98.90413724 -13.6875 98.1875 C-15.14305246 97.90740233 -16.60329034 97.65061027 -18.06713867 97.41772461 C-47.01753288 92.32290724 -47.01753288 92.32290724 -54.38000488 83.05755615 C-61.08876398 72.06075609 -63.76632635 58.81606889 -66.23306274 46.31549072 C-66.89404583 43.22030905 -67.77401508 40.21694267 -68.6875 37.1875 C-49.90303361 9.91738663 -32.85252594 -1.37028263 0 0 Z " fill="#FEFEFE" transform="translate(149.6875,328.8125)"/>
<path d="M0 0 C12.10775714 8.86456289 26.1366874 19.6371532 28.78752708 35.267066 C31.3252017 54.38014042 29.43603373 74.40101998 27.51594543 93.48962402 C17.76176141 94.55506098 8.00522897 95.27115913 -1.79655457 95.67712402 C-2.51486073 95.70708466 -3.23316689 95.73704529 -3.9732399 95.76791382 C-21.66589108 96.42032177 -36.24943303 95.90292839 -50.01309204 83.37297058 C-57.66356062 75.77722783 -64.37567714 67.3573843 -70.48405457 58.48962402 C-68.85091654 53.42082756 -67.2150621 48.35291832 -65.576828 43.2857666 C-65.02141704 41.56659912 -64.46671247 39.84720324 -63.9127655 38.12756348 C-63.1103227 35.63694903 -62.3052302 33.14720354 -61.49967957 30.65759277 C-61.25783936 29.90503708 -61.01599915 29.15248138 -60.76683044 28.37712097 C-60.28059054 26.8776772 -59.78085437 25.38254554 -59.26799011 23.89199829 C-58.70149524 22.15597202 -58.20778386 20.39562514 -57.76066589 18.62509155 C-55.70605928 11.39886813 -55.70605928 11.39886813 -52.41893005 8.95304871 C-49.77606271 7.76411958 -47.1745124 6.90244657 -44.39030457 6.09899902 C-43.40662903 5.7792511 -42.42295349 5.45950317 -41.4094696 5.13006592 C-38.27909272 4.12507501 -35.13335525 3.18340252 -31.98405457 2.23962402 C-29.86695334 1.56242368 -27.75104854 0.88147083 -25.63639832 0.19665527 C-23.61793362 -0.44343652 -21.59843231 -1.08027055 -19.57780457 -1.71350098 C-18.1511145 -2.16164154 -18.1511145 -2.16164154 -16.69560242 -2.61883545 C-15.80788147 -2.88371765 -14.92016052 -3.14859985 -14.00553894 -3.42150879 C-13.22706604 -3.65702454 -12.44859314 -3.89254028 -11.64653015 -4.13519287 C-6.86798793 -4.96425578 -3.77740964 -2.61155954 0 0 Z " fill="#FEFEFE" transform="translate(151.4840545654297,87.5103759765625)"/>
<path d="M0 0 C0.96945557 0.84272461 1.93891113 1.68544922 2.93774414 2.55371094 C5.66863164 4.8984707 8.44861716 7.15765468 11.28295898 9.37597656 C44.78145873 35.85387252 44.78145873 35.85387252 47.23310852 54.14245605 C48.23577759 67.44994284 47.04901227 80.8385381 45 94 C38.66905057 97.33787348 32.33529861 100.67038946 26 104 C25.34519653 104.34464294 24.69039307 104.68928589 24.01574707 105.04437256 C20.39667285 106.94765632 16.76461397 108.82384224 13.125 110.6875 C12.10792969 111.22310547 11.09085937 111.75871094 10.04296875 112.31054688 C9.06199219 112.81005859 8.08101563 113.30957031 7.0703125 113.82421875 C6.21195801 114.26854248 5.35360352 114.71286621 4.46923828 115.1706543 C0.92034046 116.3626264 -1.70320489 115.53563358 -5.11309814 114.12719727 C-5.80957458 113.77713623 -6.50605103 113.4270752 -7.22363281 113.06640625 C-8.41946991 112.47073853 -8.41946991 112.47073853 -9.63946533 111.86303711 C-10.48547302 111.43385986 -11.33148071 111.00468262 -12.203125 110.5625 C-13.08152039 110.12236572 -13.95991577 109.68223145 -14.8649292 109.22875977 C-16.71540044 108.30017013 -18.56443318 107.36870905 -20.41210938 106.43457031 C-23.25080074 104.99959522 -26.09371043 103.5732782 -28.9375 102.1484375 C-30.73462623 101.24529141 -32.53150986 100.34166237 -34.328125 99.4375 C-35.18222961 99.00832275 -36.03633423 98.57914551 -36.9163208 98.13696289 C-38.09324493 97.54129517 -38.09324493 97.54129517 -39.29394531 96.93359375 C-39.98723938 96.58353271 -40.68053345 96.23347168 -41.39483643 95.87280273 C-43 95 -43 95 -44 94 C-47.87814349 77.95626891 -50.58066677 55.38832443 -42.04974365 40.62493896 C-36.43534386 32.46617611 -29.26426451 25.54824869 -22 18.875 C-21.47392277 18.39159023 -20.94784554 17.90818047 -20.40582657 17.41012192 C-13.79558461 11.37487336 -6.99512313 5.58615586 0 0 Z " fill="#24912A" transform="translate(254,362)"/>
<path d="M0 0 C0.69647644 0.35006104 1.39295288 0.70012207 2.11053467 1.06079102 C3.30637177 1.65645874 3.30637177 1.65645874 4.52636719 2.26416016 C5.37237488 2.6933374 6.21838257 3.12251465 7.09002686 3.56469727 C7.96842224 4.00483154 8.84681763 4.44496582 9.75183105 4.8984375 C11.60230229 5.82702714 13.45133503 6.75848822 15.29901123 7.69262695 C18.1377026 9.12760205 20.98061229 10.55391907 23.82440186 11.97875977 C25.62152809 12.88190586 27.41841171 13.7855349 29.21502686 14.68969727 C30.06913147 15.11887451 30.92323608 15.54805176 31.80322266 15.99023438 C32.58783875 16.38734619 33.37245483 16.78445801 34.18084717 17.19360352 C34.87414124 17.54366455 35.5674353 17.89372559 36.28173828 18.25439453 C37.88690186 19.12719727 37.88690186 19.12719727 38.88690186 20.12719727 C42.67527046 36.11923843 45.4108931 58.72629903 36.980896 73.45800781 C31.32762751 81.38996554 24.55003563 88.18540849 17.38690186 94.75219727 C16.87278244 95.22364922 16.35866302 95.69510117 15.82896423 96.18083954 C9.37299078 102.0621782 2.72682348 107.6970217 -4.11309814 113.12719727 C-13.70033858 108.73179156 -21.69929395 100.14100576 -29.36309814 93.06469727 C-29.85638359 92.61057716 -30.34966904 92.15645706 -30.85790253 91.68857574 C-43.2104416 80.21115568 -52.2370871 69.66433433 -53.04205322 52.02861023 C-53.09087934 41.31229391 -51.9476106 30.67329193 -50.11309814 20.12719727 C-43.78214871 16.78932378 -37.44839675 13.4568078 -31.11309814 10.12719727 C-30.45829468 9.78255432 -29.80349121 9.43791138 -29.12884521 9.08282471 C-25.50977099 7.17954095 -21.87771212 5.30335502 -18.23809814 3.43969727 C-17.22102783 2.9040918 -16.20395752 2.36848633 -15.15606689 1.81665039 C-14.17509033 1.31713867 -13.19411377 0.81762695 -12.18341064 0.30297852 C-10.89587891 -0.36350708 -10.89587891 -0.36350708 -9.58233643 -1.04345703 C-6.03343861 -2.23542914 -3.40989325 -1.40843631 0 0 Z " fill="#DC1C23" transform="translate(260.11309814453125,35.872802734375)"/>
<path d="M0 0 C1.09248047 0.76763672 1.09248047 0.76763672 2.20703125 1.55078125 C2.84253906 1.99035156 3.47804688 2.42992187 4.1328125 2.8828125 C14.07267279 10.53055423 19.57487112 23.37822251 21.20703125 35.55078125 C22.34266806 51.80341954 18.21916041 63.53345388 9.01953125 76.67578125 C2.33764033 84.19024004 -6.24511229 88.81176894 -15.79296875 91.55078125 C-16.41300781 91.7415625 -17.03304687 91.93234375 -17.671875 92.12890625 C-30.20468563 94.62161997 -41.80019567 91.72514089 -52.60546875 85.30078125 C-62.71174367 78.4233019 -71.38673825 66.79604608 -74.29296875 54.73828125 C-76.61474698 37.5514595 -74.24501146 23.72384597 -63.79296875 9.55078125 C-61.29296875 6.73828125 -61.29296875 6.73828125 -58.79296875 4.55078125 C-58.25929687 4.0609375 -57.725625 3.57109375 -57.17578125 3.06640625 C-40.59563758 -11.81887829 -18.47403662 -12.02752303 0 0 Z M-47.79296875 4.55078125 C-47.11234375 4.40640625 -46.43171875 4.26203125 -45.73046875 4.11328125 C-36.28527644 2.3046274 -36.28527644 2.3046274 -33.79296875 3.55078125 C-33.66796875 5.92578125 -33.66796875 5.92578125 -33.79296875 8.55078125 C-34.45296875 9.21078125 -35.11296875 9.87078125 -35.79296875 10.55078125 C-34.80296875 13.52078125 -33.81296875 16.49078125 -32.79296875 19.55078125 C-33.59734375 19.24140625 -34.40171875 18.93203125 -35.23046875 18.61328125 C-40.09401466 18.52795588 -42.09452096 20.4415847 -45.734375 23.4921875 C-48.5324312 26.2902437 -50.11691178 28.98005119 -51.79296875 32.55078125 C-52.78296875 31.89078125 -53.77296875 31.23078125 -54.79296875 30.55078125 C-56.94571823 30.85918724 -56.94571823 30.85918724 -58.79296875 31.55078125 C-59.12296875 33.20078125 -59.45296875 34.85078125 -59.79296875 36.55078125 C-57.31796875 36.05578125 -57.31796875 36.05578125 -54.79296875 35.55078125 C-54.64859375 36.31390625 -54.50421875 37.07703125 -54.35546875 37.86328125 C-53.82970935 40.63251033 -53.82970935 40.63251033 -52.79296875 43.55078125 C-51.94734375 43.34453125 -51.10171875 43.13828125 -50.23046875 42.92578125 C-43.86197934 42.23103695 -39.97450804 44.22603185 -35.10546875 48.11328125 C-34.37972656 48.73332031 -33.65398437 49.35335937 -32.90625 49.9921875 C-30.79917531 51.54620377 -29.34891977 52.12959745 -26.79296875 52.55078125 C-28.19003117 59.79344698 -29.93254583 65.40512685 -34.29296875 71.37890625 C-36.6583221 74.80374078 -38.5706957 78.56364226 -39.79296875 82.55078125 C-39.01289837 84.67699458 -39.01289837 84.67699458 -37.17578125 85.16015625 C-24.88454379 87.17511321 -13.95412599 85.69028001 -3.73046875 78.55078125 C0.19486615 75.76200678 0.19486615 75.76200678 2.20703125 71.55078125 C1.75328125 70.76703125 1.29953125 69.98328125 0.83203125 69.17578125 C-1.21488531 64.60958278 -1.24652886 60.63109239 -1.38671875 55.671875 C-1.84412125 52.15779235 -2.5394866 50.28257362 -4.79296875 47.55078125 C-7.20555344 46.67188837 -7.20555344 46.67188837 -9.85546875 46.48828125 C-12.515625 46.203125 -12.515625 46.203125 -14.79296875 45.55078125 C-17.16240098 42.28138663 -16.94198469 39.50593709 -16.3515625 35.5625 C-15.79296875 33.55078125 -15.79296875 33.55078125 -13.73046875 30.48828125 C-11.37783479 26.92138459 -11.45788008 24.73938959 -11.79296875 20.55078125 C-10.80296875 20.22078125 -9.81296875 19.89078125 -8.79296875 19.55078125 C-9.28796875 18.06578125 -9.28796875 18.06578125 -9.79296875 16.55078125 C-10.45296875 16.55078125 -11.11296875 16.55078125 -11.79296875 16.55078125 C-11.13296875 15.23078125 -10.47296875 13.91078125 -9.79296875 12.55078125 C-7.81296875 12.88078125 -5.83296875 13.21078125 -3.79296875 13.55078125 C-3.46296875 10.91078125 -3.13296875 8.27078125 -2.79296875 5.55078125 C-7.07612425 2.56086002 -7.07612425 2.56086002 -11.98046875 1.61328125 C-14.11723745 2.71850644 -15.88174023 4.08925356 -17.79296875 5.55078125 C-21.07908003 7.33075819 -24.11042758 8.84260026 -27.79296875 9.55078125 C-27.91671875 8.43703125 -28.04046875 7.32328125 -28.16796875 6.17578125 C-28.43955005 2.51974448 -28.43955005 2.51974448 -30.79296875 0.55078125 C-29.80296875 -0.10921875 -28.81296875 -0.76921875 -27.79296875 -1.44921875 C-34.64883726 -2.05862928 -42.7992302 -0.4429573 -47.79296875 4.55078125 Z M0.20703125 25.55078125 C0.20703125 26.21078125 0.20703125 26.87078125 0.20703125 27.55078125 C3.61024059 28.22751572 3.61024059 28.22751572 7.20703125 28.55078125 C7.86703125 27.89078125 8.52703125 27.23078125 9.20703125 26.55078125 C6.23703125 26.22078125 3.26703125 25.89078125 0.20703125 25.55078125 Z M-67.79296875 34.55078125 C-69.99351511 45.77356768 -67.63985482 57.06269349 -61.4453125 66.6328125 C-56.9361357 72.92161108 -52.23779288 78.92918506 -44.79296875 81.55078125 C-45.31798807 68.84026359 -45.31798807 68.84026359 -51.5234375 58.18359375 C-52.79296875 56.55078125 -52.79296875 56.55078125 -53.23046875 52.80078125 C-52.89362923 50.29854482 -52.5614379 47.95224733 -51.79296875 45.55078125 C-58.28489542 40.64877193 -58.28489542 40.64877193 -65.79296875 38.55078125 C-66.12296875 37.23078125 -66.45296875 35.91078125 -66.79296875 34.55078125 C-67.12296875 34.55078125 -67.45296875 34.55078125 -67.79296875 34.55078125 Z " fill="#434343" transform="translate(282.79296875,214.44921875)"/>
<path d="M0 0 C2.8984375 0.1015625 2.8984375 0.1015625 6 1 C7.4765625 3.3984375 7.4765625 3.3984375 8.625 6.375 C10.40100053 10.04571767 11.2047143 11.6461918 14.9765625 13.32421875 C18.21331357 14.09572633 18.21331357 14.09572633 21.390625 14.53515625 C24 15 24 15 26 17 C26.34375 19.4140625 26.34375 19.4140625 26 22 C24.46875 23.7109375 24.46875 23.7109375 22.5 25.375 C19.25420182 28.75037096 18.63988958 31.08946917 18.703125 35.77001953 C18.80924128 37.75164629 18.97595562 39.72973826 19.14453125 41.70703125 C19 45 19 45 17.1640625 46.95703125 C14.27139332 48.3511516 13.01584647 48.02980123 10 47 C9.21625 46.46375 8.4325 45.9275 7.625 45.375 C3.98844995 43.47014045 1.93696818 44.03302536 -2 45 C-3.03125 45.556875 -4.0625 46.11375 -5.125 46.6875 C-8 48 -8 48 -10.8125 47.25 C-13 46 -13 46 -14 45 C-13.8868754 42.66606078 -13.75922976 40.33282057 -13.625 38 C-13.43996658 32.59241428 -13.94896039 29.09675915 -17.5625 24.875 C-18.55443359 23.91207031 -18.55443359 23.91207031 -19.56640625 22.9296875 C-21 21 -21 21 -20.90234375 18.3828125 C-20 16 -20 16 -17 14 C-15.39860517 13.82635478 -13.79373825 13.68339965 -12.1875 13.5625 C-8.52960834 12.93146021 -7.34491025 12.44838332 -5.046875 9.4609375 C-3.56793036 6.68253179 -2.25495124 3.8849986 -1 1 C-0.67 0.67 -0.34 0.34 0 0 Z " fill="#DC1F26" transform="translate(371,349)"/>
<path d="M0 0 C2.8984375 0.1015625 2.8984375 0.1015625 6 1 C7.4765625 3.3984375 7.4765625 3.3984375 8.625 6.375 C10.40100053 10.04571767 11.2047143 11.6461918 14.9765625 13.32421875 C18.21331357 14.09572633 18.21331357 14.09572633 21.390625 14.53515625 C24 15 24 15 26 17 C26.34375 19.4140625 26.34375 19.4140625 26 22 C24.46875 23.7109375 24.46875 23.7109375 22.5 25.375 C19.25420182 28.75037096 18.63988958 31.08946917 18.703125 35.77001953 C18.80924128 37.75164629 18.97595562 39.72973826 19.14453125 41.70703125 C19 45 19 45 17.1640625 46.95703125 C14.27139332 48.3511516 13.01584647 48.02980123 10 47 C9.21625 46.46375 8.4325 45.9275 7.625 45.375 C3.98844995 43.47014045 1.93696818 44.03302536 -2 45 C-3.03125 45.556875 -4.0625 46.11375 -5.125 46.6875 C-8 48 -8 48 -10.8125 47.25 C-13 46 -13 46 -14 45 C-13.8868754 42.66606078 -13.75922976 40.33282057 -13.625 38 C-13.43996658 32.59241428 -13.94896039 29.09675915 -17.5625 24.875 C-18.55443359 23.91207031 -18.55443359 23.91207031 -19.56640625 22.9296875 C-21 21 -21 21 -20.90234375 18.3828125 C-20 16 -20 16 -17 14 C-15.39860517 13.82635478 -13.79373825 13.68339965 -12.1875 13.5625 C-8.52960834 12.93146021 -7.34491025 12.44838332 -5.046875 9.4609375 C-3.56793036 6.68253179 -2.25495124 3.8849986 -1 1 C-0.67 0.67 -0.34 0.34 0 0 Z " fill="#DC1F26" transform="translate(134,349)"/>
<path d="M0 0 C2.8984375 0.1015625 2.8984375 0.1015625 6 1 C7.4765625 3.3984375 7.4765625 3.3984375 8.625 6.375 C10.40100053 10.04571767 11.2047143 11.6461918 14.9765625 13.32421875 C18.21331357 14.09572633 18.21331357 14.09572633 21.390625 14.53515625 C24 15 24 15 26 17 C26.34375 19.4140625 26.34375 19.4140625 26 22 C24.46875 23.7109375 24.46875 23.7109375 22.5 25.375 C19.25420182 28.75037096 18.63988958 31.08946917 18.703125 35.77001953 C18.80924128 37.75164629 18.97595562 39.72973826 19.14453125 41.70703125 C19 45 19 45 17.1640625 46.95703125 C14.27139332 48.3511516 13.01584647 48.02980123 10 47 C9.21625 46.46375 8.4325 45.9275 7.625 45.375 C3.98844995 43.47014045 1.93696818 44.03302536 -2 45 C-3.03125 45.556875 -4.0625 46.11375 -5.125 46.6875 C-8 48 -8 48 -10.8125 47.25 C-13 46 -13 46 -14 45 C-13.8868754 42.66606078 -13.75922976 40.33282057 -13.625 38 C-13.43996658 32.59241428 -13.94896039 29.09675915 -17.5625 24.875 C-18.55443359 23.91207031 -18.55443359 23.91207031 -19.56640625 22.9296875 C-21 21 -21 21 -20.90234375 18.3828125 C-20 16 -20 16 -17 14 C-15.39860517 13.82635478 -13.79373825 13.68339965 -12.1875 13.5625 C-8.52960834 12.93146021 -7.34491025 12.44838332 -5.046875 9.4609375 C-3.56793036 6.68253179 -2.25495124 3.8849986 -1 1 C-0.67 0.67 -0.34 0.34 0 0 Z " fill="#DC1F26" transform="translate(371,112)"/>
<path d="M0 0 C2.8984375 0.1015625 2.8984375 0.1015625 6 1 C7.4765625 3.3984375 7.4765625 3.3984375 8.625 6.375 C10.40100053 10.04571767 11.2047143 11.6461918 14.9765625 13.32421875 C18.21331357 14.09572633 18.21331357 14.09572633 21.390625 14.53515625 C24 15 24 15 26 17 C26.34375 19.4140625 26.34375 19.4140625 26 22 C24.46875 23.7109375 24.46875 23.7109375 22.5 25.375 C19.25420182 28.75037096 18.63988958 31.08946917 18.703125 35.77001953 C18.80924128 37.75164629 18.97595562 39.72973826 19.14453125 41.70703125 C19 45 19 45 17.1640625 46.95703125 C14.27139332 48.3511516 13.01584647 48.02980123 10 47 C9.21625 46.46375 8.4325 45.9275 7.625 45.375 C3.98844995 43.47014045 1.93696818 44.03302536 -2 45 C-3.03125 45.556875 -4.0625 46.11375 -5.125 46.6875 C-8 48 -8 48 -10.8125 47.25 C-13 46 -13 46 -14 45 C-13.8868754 42.66606078 -13.75922976 40.33282057 -13.625 38 C-13.43996658 32.59241428 -13.94896039 29.09675915 -17.5625 24.875 C-18.55443359 23.91207031 -18.55443359 23.91207031 -19.56640625 22.9296875 C-21 21 -21 21 -20.90234375 18.3828125 C-20 16 -20 16 -17 14 C-15.39860517 13.82635478 -13.79373825 13.68339965 -12.1875 13.5625 C-8.52960834 12.93146021 -7.34491025 12.44838332 -5.046875 9.4609375 C-3.56793036 6.68253179 -2.25495124 3.8849986 -1 1 C-0.67 0.67 -0.34 0.34 0 0 Z " fill="#DC1F26" transform="translate(134,112)"/>
<path d="M0 0 C3.6531577 1.53786831 5.983949 3.73948958 8.765625 6.53515625 C9.65507812 7.42654297 10.54453125 8.31792969 11.4609375 9.23632812 C12.84152344 10.6352832 12.84152344 10.6352832 14.25 12.0625 C15.1949092 13.00886639 16.14021762 13.95483436 17.0859375 14.90039062 C24 21.85980776 24 21.85980776 24 23 C13.44 23 2.88 23 -8 23 C-8 8 -8 8 -4 3.0625 C-2.70003108 1.99950458 -1.37656026 0.96174857 0 0 Z " fill="#FFFFFF" transform="translate(338,278)"/>
<path d="M0 0 C4.4058079 2.11670336 7.06676641 3.93347161 10 8 C10 12.95 10 17.9 10 23 C-0.56 23 -11.12 23 -22 23 C-15.25 15.125 -15.25 15.125 -11.9140625 11.81640625 C-11.21152344 11.11708984 -10.50898438 10.41777344 -9.78515625 9.69726562 C-9.07230469 8.99279297 -8.35945312 8.28832031 -7.625 7.5625 C-6.88894531 6.83095703 -6.15289062 6.09941406 -5.39453125 5.34570312 C-3.59863926 3.56147277 -1.80044015 1.77963876 0 0 Z " fill="#FFFFFF" transform="translate(169,278)"/>
<path d="M0 0 C10.56 0 21.12 0 32 0 C32 15 32 15 28 19.9375 C26.70003108 21.00049542 25.37656026 22.03825143 24 23 C20.3468423 21.46213169 18.016051 19.26051042 15.234375 16.46484375 C14.34492188 15.57345703 13.45546875 14.68207031 12.5390625 13.76367188 C11.15847656 12.3647168 11.15847656 12.3647168 9.75 10.9375 C8.8050908 9.99113361 7.85978238 9.04516564 6.9140625 8.09960938 C0 1.14019224 0 1.14019224 0 0 Z " fill="#FFFFFF" transform="translate(147,211)"/>
<path d="M0 0 C4.62 0 9.24 0 14 0 C14 10.56 14 21.12 14 32 C6.125 25.25 6.125 25.25 2.81640625 21.9140625 C2.11708984 21.21152344 1.41777344 20.50898438 0.69726562 19.78515625 C-0.35944336 18.71587891 -0.35944336 18.71587891 -1.4375 17.625 C-2.53481445 16.52091797 -2.53481445 16.52091797 -3.65429688 15.39453125 C-5.43852723 13.59863926 -7.22036124 11.80044015 -9 10 C-8.06409496 8.8944811 -7.12620142 7.79064547 -6.1875 6.6875 C-5.66542969 6.07261719 -5.14335937 5.45773437 -4.60546875 4.82421875 C-3.13668249 3.15530589 -1.57203741 1.57203741 0 0 Z " fill="#FFFFFF" transform="translate(285,331)"/>
<path d="M0 0 C14 0 14 0 17.3359375 1.96875 C18.00882813 2.8040625 18.68171875 3.639375 19.375 4.5 C20.08398438 5.3353125 20.79296875 6.170625 21.5234375 7.03125 C22.25433594 8.00578125 22.25433594 8.00578125 23 9 C18.47783954 14.41947104 13.69081573 19.46149992 8.6875 24.4375 C7.95982422 25.16904297 7.23214844 25.90058594 6.48242188 26.65429688 C5.79083984 27.34458984 5.09925781 28.03488281 4.38671875 28.74609375 C3.75983154 29.37185303 3.13294434 29.9976123 2.48706055 30.64233398 C1 32 1 32 0 32 C0 21.44 0 10.88 0 0 Z " fill="#FFFFFF" transform="translate(210,331)"/>
<path d="M0 0 C10.56 0 21.12 0 32 0 C25.25 7.875 25.25 7.875 21.9140625 11.18359375 C21.21152344 11.88291016 20.50898438 12.58222656 19.78515625 13.30273438 C18.71587891 14.35944336 18.71587891 14.35944336 17.625 15.4375 C16.88894531 16.16904297 16.15289062 16.90058594 15.39453125 17.65429688 C13.59863926 19.43852723 11.80044015 21.22036124 10 23 C8.8944811 22.06409496 7.79064547 21.12620142 6.6875 20.1875 C6.07261719 19.66542969 5.45773437 19.14335937 4.82421875 18.60546875 C3.15530589 17.13668249 1.57203741 15.57203741 0 14 C0 9.38 0 4.76 0 0 Z " fill="#FFFFFF" transform="translate(330,211)"/>
<path d="M0 0 C7.875 6.75 7.875 6.75 11.18359375 10.0859375 C11.88291016 10.78847656 12.58222656 11.49101562 13.30273438 12.21484375 C14.00720703 12.92769531 14.71167969 13.64054688 15.4375 14.375 C16.16904297 15.11105469 16.90058594 15.84710938 17.65429688 16.60546875 C19.43852723 18.40136074 21.22036124 20.19955985 23 22 C22.06409496 23.1055189 21.12620142 24.20935453 20.1875 25.3125 C19.66542969 25.92738281 19.14335937 26.54226562 18.60546875 27.17578125 C17.13668249 28.84469411 15.57203741 30.42796259 14 32 C9.38 32 4.76 32 0 32 C0 21.44 0 10.88 0 0 Z " fill="#FEFEFE" transform="translate(210,149)"/>
<path d="M0 0 C0 10.56 0 21.12 0 32 C-13 32 -13 32 -16.23828125 30.03125 C-17.26501953 28.77828125 -17.26501953 28.77828125 -18.3125 27.5 C-19.03050781 26.6646875 -19.74851562 25.829375 -20.48828125 24.96875 C-20.98714844 24.3190625 -21.48601562 23.669375 -22 23 C-20.4879454 19.44710141 -18.40950829 17.16466444 -15.68359375 14.453125 C-14.83732422 13.60878906 -13.99105469 12.76445312 -13.11914062 11.89453125 C-11.79172852 10.58548828 -11.79172852 10.58548828 -10.4375 9.25 C-9.54869141 8.36183594 -8.65988281 7.47367188 -7.74414062 6.55859375 C-1.14021097 0 -1.14021097 0 0 0 Z " fill="#FFFFFF" transform="translate(299,149)"/>
</svg>
