<?xml version="1.0" standalone="no"?>
<!DOCTYPE svg PUBLIC "-//W3C//DTD SVG 20010904//EN"
 "http://www.w3.org/TR/2001/REC-SVG-20010904/DTD/svg10.dtd">
<svg version="1.0" xmlns="http://www.w3.org/2000/svg"
 width="512.000000pt" height="512.000000pt" viewBox="0 0 512.000000 512.000000"
 preserveAspectRatio="xMidYMid meet">

<g transform="translate(0.000000,512.000000) scale(0.100000,-0.100000)"
fill="#000000" stroke="none">
<path d="M2173 4932 l-373 -187 0 -182 c0 -101 -3 -183 -7 -183 -4 0 -66 58
-138 130 l-130 130 -398 -132 -397 -133 -132 -397 -133 -398 135 -135 135
-135 -185 0 -185 0 -183 -365 c-100 -201 -182 -374 -182 -385 0 -11 82 -184
182 -385 l183 -365 185 0 185 0 -134 -134 -134 -134 134 -398 134 -398 395
-132 395 -132 138 136 137 137 0 -190 0 -190 375 -188 375 -187 373 187 372
188 3 185 2 184 133 -132 132 -132 398 132 397 133 132 397 133 398 -135 135
-135 135 182 0 181 0 65 123 c35 67 123 237 195 377 l130 255 -192 370 -192
370 -184 3 -184 2 134 135 135 135 -133 398 -132 397 -397 133 -398 132 -132
-132 -133 -132 -2 184 -3 185 -370 187 c-203 103 -372 187 -375 187 -3 0 -173
-84 -377 -187z m825 -623 l-3 -244 -5 252 c-3 139 -2 249 3 244 4 -4 6 -117 5
-252z m-1198 -681 l0 -318 -318 0 -317 0 -178 178 -177 177 78 235 78 235 240
81 239 82 178 -176 177 -177 0 -317z m2403 268 l79 -238 -173 -174 -174 -174
-317 0 -318 0 0 322 0 323 171 171 172 172 240 -82 241 -81 79 -239z m-1873
-51 c124 -124 223 -225 220 -225 -3 0 -106 101 -230 225 -124 124 -223 225
-220 225 3 0 106 -101 230 -225z m-45 -485 l-49 -50 -68 0 -68 0 0 167 0 168
117 -117 118 -118 -50 -50z m715 115 l0 -165 -73 0 -73 0 -49 50 -49 50 114
115 c63 63 118 115 122 115 5 0 8 -74 8 -165z m-1200 -533 l0 -68 -50 -49 -50
-50 -118 118 -117 117 168 0 167 0 0 -68z m1720 -47 c-63 -63 -119 -115 -125
-115 -6 0 -30 19 -53 43 -42 42 -42 44 -42 115 l0 72 167 0 168 0 -115 -115z
m-958 88 c-38 -13 -41 -16 -26 -27 12 -9 15 -20 10 -40 -4 -17 -2 -28 6 -31
16 -6 104 38 135 67 19 18 26 19 50 9 15 -6 39 -20 53 -30 20 -16 22 -22 11
-35 -7 -8 -10 -24 -6 -35 8 -26 -12 -37 -34 -17 -17 15 -19 15 -31 0 -9 -10
-10 -18 -3 -22 6 -4 13 -17 17 -28 5 -17 2 -23 -15 -27 -17 -5 -20 -11 -15
-32 5 -19 0 -34 -20 -60 -33 -44 -42 -106 -20 -140 14 -20 24 -25 61 -25 59 0
79 -29 81 -117 2 -42 9 -77 23 -102 l20 -40 -36 -34 c-92 -90 -248 -128 -375
-91 -29 9 -21 45 28 124 26 41 52 93 59 115 7 22 16 48 20 57 5 13 -3 22 -32
37 -22 11 -45 27 -53 36 -27 32 -90 57 -127 50 -25 -4 -33 -10 -29 -21 3 -9
-1 -29 -10 -46 -15 -29 -15 -34 0 -62 9 -17 25 -43 37 -57 14 -18 24 -49 29
-100 5 -41 12 -82 15 -91 11 -29 -11 -21 -67 25 -67 55 -121 125 -148 196 -40
101 -38 314 1 227 6 -13 23 -27 37 -31 14 -3 39 -17 55 -31 16 -14 31 -23 33
-21 3 2 -4 23 -14 45 -13 30 -22 38 -29 31 -6 -6 -16 -8 -22 -5 -15 9 -14 39
1 54 15 15 54 16 63 2 4 -6 19 6 34 27 15 21 49 55 74 76 39 32 50 36 67 27
18 -10 20 -8 20 19 0 16 -7 37 -16 45 -14 15 -14 18 8 36 19 15 21 22 12 37
-15 25 -47 27 -99 8 -61 -24 -75 -14 -23 15 51 29 127 48 188 48 l45 0 -43
-15z m-446 -244 c-14 -32 -15 -32 -16 -8 0 14 5 30 12 37 18 18 20 8 4 -29z
m793 -22 c38 -16 30 -27 -20 -27 -78 0 -96 31 -23 39 7 0 26 -5 43 -12z m-796
-337 c3 -11 1 -18 -4 -14 -5 3 -9 12 -9 20 0 20 7 17 13 -6z m-313 -202 l0
-68 -165 0 c-91 0 -165 3 -165 7 0 4 51 58 112 120 l113 113 52 -52 53 -52 0
-68z m1715 52 l120 -120 -168 0 -167 0 0 72 0 72 47 48 c26 26 47 48 48 48 0
0 54 -54 120 -120z m-1715 -737 l0 -317 -175 -175 -174 -176 -243 81 -242 80
-79 238 -79 238 173 174 174 174 322 0 323 0 0 -317z m485 267 l50 -50 -118
-118 -117 -117 0 168 0 167 68 0 68 0 49 -50z m715 -117 l0 -168 -120 120
-120 120 47 47 47 48 73 0 73 0 0 -167z m1109 -7 l173 -174 -79 -238 -79 -239
-237 -80 -237 -80 -175 175 -175 175 0 317 0 318 318 0 317 0 174 -174z
m-1116 -1077 c-5 -5 -6 105 -3 244 l5 252 3 -244 c1 -135 -1 -248 -5 -252z"/>
<path d="M1349 3993 c-9 -2 -27 -26 -39 -54 -30 -62 -35 -67 -101 -79 -85 -16
-99 -48 -45 -107 52 -59 57 -74 46 -132 -11 -58 -6 -77 22 -92 15 -8 30 -5 68
15 61 32 69 32 130 1 77 -39 105 -13 89 85 -9 58 -14 47 65 146 29 35 10 71
-41 79 -75 11 -87 19 -116 73 -29 54 -50 71 -78 65z"/>
<path d="M3719 3993 c-9 -2 -27 -26 -39 -54 -30 -62 -35 -67 -101 -79 -85 -16
-99 -48 -45 -107 52 -59 57 -74 46 -132 -11 -58 -6 -77 22 -92 15 -8 30 -5 68
15 61 32 69 32 130 1 77 -39 105 -13 89 85 -9 58 -14 47 65 146 29 35 10 71
-41 79 -75 11 -87 19 -116 73 -29 54 -50 71 -78 65z"/>
<path d="M1349 1623 c-9 -2 -27 -26 -39 -54 -30 -62 -35 -67 -101 -79 -85 -16
-99 -48 -45 -107 52 -59 57 -74 46 -132 -11 -58 -6 -77 22 -92 15 -8 30 -5 68
15 61 32 69 32 130 1 77 -39 105 -13 89 85 -9 58 -14 47 65 146 29 35 10 71
-41 79 -75 11 -87 19 -116 73 -29 54 -50 71 -78 65z"/>
<path d="M3719 1623 c-9 -2 -27 -26 -39 -54 -30 -62 -35 -67 -101 -79 -85 -16
-99 -48 -45 -107 52 -59 57 -74 46 -132 -11 -58 -6 -77 22 -92 15 -8 30 -5 68
15 61 32 69 32 130 1 77 -39 105 -13 89 85 -9 58 -14 47 65 146 29 35 10 71
-41 79 -75 11 -87 19 -116 73 -29 54 -50 71 -78 65z"/>
</g>
</svg>
